<svg viewBox="0 0 48 48" xmlns="http://www.w3.org/2000/svg"><defs><style>.cls-5{fill:#9dcc6b}.cls-6{fill:#b5e08c}.cls-7{fill:#84b749}.cls-8{fill:#a82af4}.cls-9{fill:#ae3ef9}</style></defs><g data-name="Place Pin Virus" id="Place_Pin_Virus"><path d="M39 16c0 6.57-9.43 19.73-13.41 24.94a2 2 0 01-3.18 0C18.45 35.76 9 22.56 9 16a15 15 0 0130 0z" fill="#db5669"/><path d="M39 16c0 6.3-8.7 18.65-12.47 23.68-.84-.19-1.11-.48-5-6.12C17.21 27.4 12 18.89 12 14a14.9 14.9 0 015.27-11.4A15 15 0 0139 16z" fill="#f26674"/><path d="M35 16a11 11 0 01-11 11C13.56 27 9 13.66 17.29 7.29A11 11 0 0135 16z" fill="#dad7e5"/><path d="M35 16a10.88 10.88 0 01-2.29 6.71A10.88 10.88 0 0126 25a11 11 0 01-8.71-17.71A11 11 0 0135 16z" fill="#edebf2"/><path class="cls-5" d="M37 41a3.5 3.5 0 01-1 2.34c-5.55 6-25 4.13-25-2.34 0-3.08 4.49-4.79 7.5-5.44 1.51 2.17 2.9 4.06 3.91 5.38a2 2 0 003.18 0c1-1.32 2.4-3.21 3.91-5.38 4.43.96 7.5 3.04 7.5 5.44z"/><path class="cls-6" d="M37 41a3.5 3.5 0 01-1 2.34c-8 3.55-22 1-22-4.34a3.69 3.69 0 011-2.34 18.25 18.25 0 013.48-1.1c1.51 2.17 2.9 4.06 3.91 5.38a2 2 0 003.18 0c1-1.32 2.4-3.21 3.91-5.38C33.93 36.52 37 38.6 37 41z"/><path class="cls-5" d="M20.41 40.94a2 2 0 002.59.51 2 2 0 01-.59-.51c-1-1.32-2.4-3.21-3.91-5.38-.59.13-1.15.28-1.69.44 1.39 2 2.66 3.71 3.6 4.94zM19.12 14.41l-1.71-1.05a1 1 0 011-1.7c1.81 1.11 1.88 1.11 2.05 1.39a1 1 0 01-1.34 1.36z"/><path class="cls-6" d="M20.5 13.05a1 1 0 01-.86.51c-.36 0-.35-.05-2.23-1.2-.07 0-.39-.31-.33-.37a1 1 0 011.37-.33c1.81 1.11 1.88 1.11 2.05 1.39z"/><path class="cls-5" d="M30.59 13.36c-1.93 1.18-1.86 1.2-2.23 1.2a1 1 0 01-.86-1.51c.2-.32.46-.41 2.05-1.39a1 1 0 011.04 1.7z"/><path class="cls-6" d="M30.93 12c-.2.32-.46.41-2.05 1.39a1 1 0 01-1.37-.33c-.12-.12.58-.52 2-1.42a1 1 0 011.42.36z"/><path class="cls-5" d="M20.16 19.29c-1.93 1.18-1.86 1.2-2.23 1.2a1 1 0 01-.52-1.85l1.71-1.05a1 1 0 011 1.7z"/><path class="cls-7" d="M19.16 19.29a18.86 18.86 0 01-1.74 1.06 1 1 0 010-1.71 18.86 18.86 0 011.74-1.06 1 1 0 010 1.71z"/><path class="cls-5" d="M30.07 20.49c-.36 0-.35 0-2.23-1.2a1 1 0 011-1.71 16.65 16.65 0 011.74 1.06 1 1 0 01-.51 1.85z"/><path class="cls-6" d="M30.92 20c-.05.08-.3.4-.37.33l-1.71-1.05a1 1 0 01-.33-1.37c0-.07.31-.39.37-.33l1.71 1.05a1 1 0 01.33 1.37z"/><path class="cls-5" d="M25 21v2a1 1 0 01-2 0v-2a1 1 0 012 0z"/><path class="cls-7" d="M25 21v2a1 1 0 01-1 1v-2a1 1 0 011-1z"/><path class="cls-5" d="M25 9v2a1 1 0 01-2 0V9a1 1 0 012 0z"/><path class="cls-6" d="M25 9v2a1 1 0 01-1-1V8a1 1 0 011 1z"/><path class="cls-5" d="M29 16a5 5 0 11-8-4 5 5 0 018 4z"/><path class="cls-6" d="M29 16a4.94 4.94 0 01-1 3 4.94 4.94 0 01-3 1 5 5 0 01-4-8 5 5 0 018 4z"/><path class="cls-8" d="M19.33 17H17a1 1 0 01-.86-1.5c.38-.67.91-.5 3.19-.5a1 1 0 010 2z"/><path class="cls-9" d="M20.19 15.5c-.35.66-.94.5-3.19.5a1 1 0 01-.86-.5A1 1 0 0117 15c2.42 0 2.85-.13 3.19.5z"/><path class="cls-8" d="M31 17h-2.33a1 1 0 010-2H31a1 1 0 010 2z"/><path class="cls-9" d="M32 16h-2.33a1 1 0 01-1-1H31a1 1 0 011 1z"/><path class="cls-8" d="M20.82 12.8c-1.44-2.29-1.79-2.58-1.39-3.23a1 1 0 011.71 0c.56.9 1.39 2.14 1.39 2.24a1 1 0 01-1.71.99z"/><path class="cls-9" d="M22.53 11.78a1 1 0 01-.86.49c-.73 0-.83-.44-2.23-2.67-.07-.07.24-.33.32-.38a1 1 0 011.38.32c.56.9 1.39 2.14 1.39 2.24z"/><path class="cls-8" d="M28.56 10.6c-1.45 2.3-1.51 2.67-2.23 2.67a1 1 0 01-.86-1.49c0-.1.85-1.37 1.39-2.24a1 1 0 011.7 1.06z"/><path class="cls-9" d="M28.57 9.57c0 .1-.41.66-1.39 2.23a1 1 0 01-1.38.32c-.11-.07-.39-.3-.31-.38l1.37-2.2a1 1 0 011.71.03z"/><path class="cls-8" d="M22.51 20.26c-1.45 2.33-1.51 2.67-2.22 2.67a1 1 0 01-.86-1.5c0-.1.41-.66 1.39-2.23a1 1 0 011.69 1.06z"/><path class="cls-9" d="M22.53 19.22c0 .1-.85 1.37-1.39 2.24a1 1 0 01-1.38.32c-.08-.05-.39-.31-.32-.38l1.38-2.2a1 1 0 011.71.02z"/><path class="cls-8" d="M26.86 22.46c-1.43-2.3-1.77-2.58-1.39-3.24a1 1 0 011.71 0c1 1.63 1.39 2.13 1.39 2.23a1 1 0 01-1.71 1.01z"/><path class="cls-9" d="M28.57 21.43a1 1 0 01-.86.5c-.72 0-.8-.38-2.22-2.67-.08-.08.2-.31.31-.38a1 1 0 011.38.32c1.02 1.63 1.39 2.13 1.39 2.23z"/><path class="cls-8" d="M24 15a1 1 0 00-2 0 1 1 0 002 0zM26 17a1 1 0 00-2 0 1 1 0 002 0z"/></g></svg>